<svg width="16" height="17" viewBox="0 0 16 17" fill="none" xmlns="http://www.w3.org/2000/svg">
<path d="M8 1.94418C4.13438 1.94418 1 5.15981 1 9.12231C1 12.2942 3.00625 14.9817 5.7875 15.9317C5.82651 15.9402 5.86633 15.9443 5.90625 15.9442C6.16563 15.9442 6.26562 15.7536 6.26562 15.5879C6.26562 15.4161 6.25938 14.9661 6.25625 14.3661C6.0247 14.4203 5.78782 14.4486 5.55 14.4504C4.20313 14.4504 3.89687 13.4036 3.89687 13.4036C3.57812 12.5754 3.11875 12.3536 3.11875 12.3536C2.50938 11.9254 3.11562 11.9129 3.1625 11.9129H3.16563C3.86875 11.9754 4.2375 12.6567 4.2375 12.6567C4.5875 13.2692 5.05625 13.4411 5.475 13.4411C5.75189 13.4355 6.02449 13.3716 6.275 13.2536C6.3375 12.7911 6.51875 12.4754 6.71875 12.2942C5.16563 12.1129 3.53125 11.4973 3.53125 8.74731C3.53125 7.96293 3.80312 7.32231 4.25 6.82231C4.17812 6.64106 3.9375 5.90981 4.31875 4.92231C4.36989 4.91007 4.42245 4.90482 4.475 4.90668C4.72812 4.90668 5.3 5.00356 6.24375 5.65981C7.39048 5.33897 8.60327 5.33897 9.75 5.65981C10.6938 5.00356 11.2656 4.90668 11.5188 4.90668C11.5713 4.90482 11.6239 4.91007 11.675 4.92231C12.0563 5.90981 11.8156 6.64106 11.7437 6.82231C12.1906 7.32543 12.4625 7.96606 12.4625 8.74731C12.4625 11.5036 10.825 12.1098 9.26562 12.2879C9.51562 12.5098 9.74063 12.9473 9.74063 13.6161C9.74063 14.5754 9.73125 15.3504 9.73125 15.5848C9.73125 15.7536 9.82812 15.9442 10.0875 15.9442C10.1295 15.9444 10.1714 15.9402 10.2125 15.9317C12.9969 14.9817 15 12.2911 15 9.12231C15 5.15981 11.8656 1.94418 8 1.94418Z" fill="#949494"/>
</svg>
