<svg width="107" height="24" viewBox="0 0 107 24" fill="none" xmlns="http://www.w3.org/2000/svg">
<path d="M0 11.2186H3.34884V4.47585C3.34884 4.14735 3.47934 3.83229 3.71163 3.6C3.94392 3.36771 4.25897 3.23721 4.58748 3.23721H11.0512V0H7.38167C6.90798 0 6.45369 0.188172 6.11874 0.523121L0.523121 6.11874C0.188172 6.45369 0 6.90798 0 7.38166V11.2186Z" fill="#FD8B0E"/>
<path d="M24 11.2186H20.6512V4.47585C20.6512 4.14735 20.5207 3.83229 20.2884 3.6C20.0561 3.36771 19.741 3.23721 19.4125 3.23721H12.9488V0H16.6183C17.092 0 17.5463 0.188172 17.8813 0.523121L23.4769 6.11874C23.8118 6.45369 24 6.90798 24 7.38166V11.2186Z" fill="#D9D9D9"/>
<path d="M0 12.6698H3.34884V19.4125C3.34884 19.741 3.47934 20.0561 3.71163 20.2884C3.94392 20.5207 4.25897 20.6512 4.58748 20.6512H11.0512V23.8884H7.38167C6.90798 23.8884 6.45369 23.7002 6.11874 23.3652L0.523121 17.7696C0.188172 17.4347 0 16.9804 0 16.5067V12.6698Z" fill="#D9D9D9"/>
<path d="M24 12.6698H20.6512V19.4125C20.6512 19.741 20.5207 20.0561 20.2884 20.2884C20.0561 20.5207 19.741 20.6512 19.4125 20.6512H12.9488V23.8884H16.6183C17.092 23.8884 17.5463 23.7002 17.8813 23.3652L23.4769 17.7696C23.8118 17.4347 24 16.9804 24 16.5067V12.6698Z" fill="#009A08"/>
<path d="M36.017 17.9442H33.3807L37.3977 6.30782H40.5682L44.5795 17.9442H41.9432L39.0284 8.96691H38.9375L36.017 17.9442ZM35.8523 13.3703H42.0795V15.2908H35.8523V13.3703ZM48.3551 12.8987V17.9442H45.9347V9.21691H48.2415V10.7567H48.3438C48.5369 10.2491 48.8608 9.84759 49.3153 9.55214C49.7699 9.2529 50.321 9.10327 50.9688 9.10327C51.5748 9.10327 52.1032 9.23585 52.554 9.501C53.0047 9.76615 53.3551 10.1449 53.6051 10.6374C53.8551 11.126 53.9801 11.7093 53.9801 12.3874V17.9442H51.5597V12.8192C51.5634 12.2851 51.4271 11.8684 51.1506 11.5692C50.8741 11.2662 50.4934 11.1146 50.0085 11.1146C49.6828 11.1146 49.3949 11.1847 49.1449 11.3249C48.8987 11.465 48.7055 11.6696 48.5653 11.9385C48.429 12.2037 48.3589 12.5237 48.3551 12.8987ZM59.831 18.1146C58.9484 18.1146 58.1851 17.9271 57.5412 17.5521C56.901 17.1733 56.4067 16.6468 56.0582 15.9726C55.7098 15.2946 55.5355 14.5086 55.5355 13.6146C55.5355 12.7131 55.7098 11.9252 56.0582 11.251C56.4067 10.573 56.901 10.0465 57.5412 9.67146C58.1851 9.29267 58.9484 9.10327 59.831 9.10327C60.7135 9.10327 61.4749 9.29267 62.1151 9.67146C62.759 10.0465 63.2552 10.573 63.6037 11.251C63.9522 11.9252 64.1264 12.7131 64.1264 13.6146C64.1264 14.5086 63.9522 15.2946 63.6037 15.9726C63.2552 16.6468 62.759 17.1733 62.1151 17.5521C61.4749 17.9271 60.7135 18.1146 59.831 18.1146ZM59.8423 16.2396C60.2438 16.2396 60.5791 16.126 60.848 15.8987C61.117 15.6677 61.3196 15.3533 61.456 14.9555C61.5961 14.5578 61.6662 14.1052 61.6662 13.5976C61.6662 13.09 61.5961 12.6374 61.456 12.2396C61.3196 11.8419 61.117 11.5275 60.848 11.2965C60.5791 11.0654 60.2438 10.9499 59.8423 10.9499C59.437 10.9499 59.0961 11.0654 58.8196 11.2965C58.5469 11.5275 58.3404 11.8419 58.2003 12.2396C58.0639 12.6374 57.9957 13.09 57.9957 13.5976C57.9957 14.1052 58.0639 14.5578 58.2003 14.9555C58.3404 15.3533 58.5469 15.6677 58.8196 15.8987C59.0961 16.126 59.437 16.2396 59.8423 16.2396ZM68.1207 12.8987V17.9442H65.7003V9.21691H68.0071V10.7567H68.1094C68.3026 10.2491 68.6264 9.84759 69.081 9.55214C69.5355 9.2529 70.0866 9.10327 70.7344 9.10327C71.3404 9.10327 71.8688 9.23585 72.3196 9.501C72.7704 9.76615 73.1207 10.1449 73.3707 10.6374C73.6207 11.126 73.7457 11.7093 73.7457 12.3874V17.9442H71.3253V12.8192C71.3291 12.2851 71.1927 11.8684 70.9162 11.5692C70.6397 11.2662 70.259 11.1146 69.7741 11.1146C69.4484 11.1146 69.1605 11.1847 68.9105 11.3249C68.6643 11.465 68.4711 11.6696 68.331 11.9385C68.1946 12.2037 68.1245 12.5237 68.1207 12.8987ZM76.3693 17.9442V6.30782H80.1477C80.8523 6.30782 81.447 6.43282 81.9318 6.68282C82.4167 6.93282 82.7841 7.2832 83.0341 7.73396C83.2879 8.18471 83.4148 8.70933 83.4148 9.30782C83.4148 9.77752 83.339 10.1942 83.1875 10.5578C83.036 10.9215 82.8239 11.2226 82.5511 11.4612C82.2822 11.6961 81.9659 11.859 81.6023 11.9499V12.018C82.0038 12.0483 82.3769 12.1885 82.7216 12.4385C83.0663 12.6847 83.3428 13.0199 83.5511 13.4442C83.7633 13.8684 83.8693 14.3627 83.8693 14.9271C83.8693 15.5218 83.7405 16.0465 83.483 16.501C83.2292 16.9518 82.8485 17.3059 82.3409 17.5635C81.8333 17.8173 81.2045 17.9442 80.4545 17.9442H76.3693ZM77.0795 17.2851H80.4545C81.3295 17.2851 82.0019 17.0654 82.4716 16.626C82.9451 16.1866 83.1818 15.6203 83.1818 14.9271C83.1818 14.4385 83.0663 14.001 82.8352 13.6146C82.608 13.2283 82.2917 12.9233 81.8864 12.6999C81.4811 12.4726 81.0114 12.359 80.4773 12.359H77.0795V17.2851ZM77.0795 11.7112H80.392C80.8883 11.7112 81.3087 11.6033 81.6534 11.3874C82.0019 11.1715 82.267 10.8817 82.4489 10.518C82.6345 10.1544 82.7273 9.751 82.7273 9.30782C82.7273 8.58812 82.5038 8.01805 82.0568 7.59759C81.6098 7.17714 80.9735 6.96691 80.1477 6.96691H77.0795V11.7112ZM95.9219 12.126C95.9219 13.3268 95.7135 14.376 95.2969 15.2737C94.8802 16.1677 94.3007 16.8627 93.5582 17.359C92.8196 17.8552 91.9673 18.1033 91.0014 18.1033C90.0317 18.1033 89.1757 17.8552 88.4332 17.359C87.6946 16.859 87.117 16.162 86.7003 15.268C86.2836 14.3703 86.0753 13.323 86.0753 12.126C86.0753 10.9252 86.2836 9.8779 86.7003 8.98396C87.1207 8.09002 87.7003 7.39494 88.4389 6.89873C89.1776 6.39873 90.0317 6.14873 91.0014 6.14873C91.9673 6.14873 92.8196 6.39683 93.5582 6.89305C94.3007 7.38926 94.8802 8.08623 95.2969 8.98396C95.7135 9.8779 95.9219 10.9252 95.9219 12.126ZM95.2287 12.126C95.2287 11.0465 95.0469 10.1109 94.6832 9.31918C94.3234 8.52752 93.8253 7.91577 93.1889 7.48396C92.5526 7.04835 91.8234 6.83055 91.0014 6.83055C90.1795 6.83055 89.4503 7.04646 88.8139 7.47827C88.1776 7.9063 87.6776 8.51805 87.3139 9.3135C86.9541 10.1052 86.7741 11.0427 86.7741 12.126C86.7741 13.198 86.9522 14.1317 87.3082 14.9271C87.6681 15.7188 88.1662 16.3324 88.8026 16.768C89.4389 17.2037 90.1719 17.4215 91.0014 17.4215C91.8234 17.4215 92.5526 17.2055 93.1889 16.7737C93.8253 16.3381 94.3234 15.7245 94.6832 14.9328C95.0469 14.1412 95.2287 13.2055 95.2287 12.126ZM97.4403 6.96691V6.30782H105.594V6.96691H101.872V17.9442H101.162V6.96691H97.4403Z" fill="white"/>
</svg>
