<svg width="114" height="114" viewBox="0 0 114 114" fill="none" xmlns="http://www.w3.org/2000/svg">
<path d="M0 53.8186H15.907V21.7905C15.907 20.2301 16.5268 18.7336 17.6302 17.6302C18.7336 16.5269 20.2301 15.907 21.7905 15.907H52.493V0.530243H35.0629C32.8129 0.530243 30.655 1.42406 29.064 3.01507L2.48482 29.5943C0.893818 31.1853 0 33.3431 0 35.5931V53.8186Z" fill="#FD8B0E"/>
<path d="M114 53.8186H98.093V21.7905C98.093 20.2301 97.4732 18.7336 96.3698 17.6302C95.2664 16.5269 93.7699 15.907 92.2095 15.907H61.507V0.530243H78.9371C81.1871 0.530243 83.345 1.42406 84.936 3.01507L111.515 29.5943C113.106 31.1853 114 33.3431 114 35.5931V53.8186Z" fill="#D9D9D9"/>
<path d="M0 60.7116H15.907V92.7397C15.907 94.3001 16.5268 95.7966 17.6302 96.9C18.7336 98.0034 20.2301 98.6233 21.7905 98.6233H52.493V114H35.0629C32.8129 114 30.655 113.106 29.064 111.515L2.48482 84.936C0.893818 83.345 0 81.1871 0 78.9371V60.7116Z" fill="#D9D9D9"/>
<path d="M114 60.7116H98.093V92.7397C98.093 94.3001 97.4732 95.7966 96.3698 96.9C95.2664 98.0034 93.7699 98.6233 92.2095 98.6233H61.507V114H78.9371C81.1871 114 83.345 113.106 84.936 111.515L111.515 84.936C113.106 83.345 114 81.1871 114 78.9371V60.7116Z" fill="#009A08"/>
</svg>
