<svg width="16" height="17" viewBox="0 0 16 17" fill="none" xmlns="http://www.w3.org/2000/svg">
<g clip-path="url(#clip0_10_269)">
<path d="M14.5 3.02293C14.4961 2.61179 14.3302 2.21876 14.0384 1.92908C13.7466 1.6394 13.3524 1.4764 12.9412 1.47543L3.05125 1.44418C2.64051 1.44426 2.24656 1.60721 1.95577 1.8973C1.66497 2.18739 1.50108 2.58094 1.5 2.99168V13.1942C1.5 14.0473 2.19625 14.6942 3.05125 14.6942H11.5L11.0938 13.3192L14.5 16.4442V3.02293ZM10.1453 11.2507C10.1453 11.2507 9.87281 10.9261 9.64531 10.647C10.6372 10.3676 11.0156 9.75668 11.0156 9.75668C10.7432 9.9374 10.4512 10.0868 10.1453 10.202C9.79207 10.3487 9.42429 10.4575 9.04813 10.5267C8.39998 10.6457 7.73534 10.6432 7.08813 10.5192C6.70742 10.4485 6.33481 10.3396 5.97594 10.1942C5.78609 10.1215 5.60149 10.0357 5.42344 9.93762C5.40062 9.92262 5.37812 9.91512 5.35531 9.89981C5.34 9.89231 5.3325 9.88481 5.32406 9.88481C5.18781 9.80918 5.11219 9.75637 5.11219 9.75637C5.11219 9.75637 5.47531 10.3529 6.43656 10.6395C6.20937 10.9264 5.92938 11.2586 5.92938 11.2586C4.25719 11.2057 3.62156 10.1189 3.62156 10.1189C3.62156 7.71075 4.71125 5.75575 4.71125 5.75575C5.80094 4.94793 6.83 4.97075 6.83 4.97075L6.90562 5.06137C5.54344 5.44637 4.92312 6.04262 4.92312 6.04262C4.92312 6.04262 5.08938 5.952 5.36938 5.83106C6.17906 5.47637 6.8225 5.38575 7.08813 5.35575C7.13052 5.34693 7.1736 5.34181 7.21688 5.34043C7.72394 5.27464 8.23705 5.2696 8.74531 5.32543C9.54336 5.41711 10.3165 5.66054 11.0231 6.04262C11.0231 6.04262 10.4253 5.47543 9.13875 5.09106L9.24469 4.97043C9.24469 4.97043 10.2812 4.94762 11.3638 5.75668C11.3638 5.75668 12.4534 7.71168 12.4534 10.1198C12.4534 10.1111 11.8175 11.1979 10.1453 11.2507Z" fill="#949494"/>
<path d="M6.62656 7.75668C6.19531 7.75668 5.85469 8.12668 5.85469 8.587C5.85469 9.04731 6.20281 9.41731 6.62656 9.41731C7.05781 9.41731 7.39844 9.04762 7.39844 8.587C7.40625 8.12575 7.05781 7.75668 6.62656 7.75668Z" fill="#949494"/>
<path d="M9.38844 7.75668C8.95719 7.75668 8.61656 8.12668 8.61656 8.587C8.61656 9.04731 8.96469 9.41731 9.38844 9.41731C9.82 9.41731 10.1603 9.04762 10.1603 8.587C10.1603 8.12637 9.8125 7.75668 9.38844 7.75668Z" fill="#949494"/>
</g>
<defs>
<clipPath id="clip0_10_269">
<rect width="16" height="16" fill="white" transform="translate(0 0.944183)"/>
</clipPath>
</defs>
</svg>
